<?xml version="1.0" encoding="utf-8"?>
<!-- Generator: Adobe Illustrator 24.1.2, SVG Export Plug-In . SVG Version: 6.00 Build 0)  -->
<svg version="1.1" id="Layer_1" xmlns="http://www.w3.org/2000/svg" xmlns:xlink="http://www.w3.org/1999/xlink" x="0px" y="0px"
	 viewBox="0 0 43.3 36.7" style="enable-background:new 0 0 43.3 36.7;" xml:space="preserve">
<style type="text/css">
	.st0{fill:#7D7D7D;}
</style>
<path class="st0" d="M0,5c0-0.9,0.7-1.7,1.7-1.7l0,0h40c0.9,0,1.7,0.7,1.7,1.7v3.3c0,0.9-0.7,1.7-1.7,1.7h-40C0.7,10,0,9.3,0,8.3
	l0,0V5z"/>
<path class="st0" d="M36.7,6.7H30v-5C30,0.7,30.7,0,31.7,0c0,0,0,0,0,0H35c0.9,0,1.7,0.7,1.7,1.6c0,0,0,0,0,0V6.7z"/>
<path class="st0" d="M13.3,6.7H6.7v-5C6.7,0.7,7.4,0,8.3,0c0,0,0,0,0,0h3.3c0.9,0,1.7,0.7,1.7,1.6c0,0,0,0,0,0V6.7z"/>
<path class="st0" d="M1.7,13.3V35c0,0.9,0.7,1.7,1.7,1.7c0,0,0,0,0,0H40c0.9,0,1.7-0.7,1.7-1.6c0,0,0,0,0,0V13.3H1.7z M28,30.2H14.9
	c-0.8,0-1.5-0.7-1.5-1.5s0.7-1.5,1.5-1.5H28c0.8,0,1.5,0.7,1.5,1.5S28.8,30.2,28,30.2z M28,22.5H14.9c-0.8,0-1.5-0.7-1.5-1.5
	s0.7-1.5,1.5-1.5H28c0.8,0,1.5,0.7,1.5,1.5S28.8,22.5,28,22.5z"/>
</svg>
