<?xml version="1.0" encoding="utf-8"?>
<!-- Generator: Adobe Illustrator 24.1.2, SVG Export Plug-In . SVG Version: 6.00 Build 0)  -->
<svg version="1.1" id="Layer_1" xmlns="http://www.w3.org/2000/svg" xmlns:xlink="http://www.w3.org/1999/xlink" x="0px" y="0px"
	 viewBox="0 0 43.3 36.7" style="enable-background:new 0 0 43.3 36.7;" xml:space="preserve">
<style type="text/css">
	.st0{fill:#7D7D7D;}
</style>
<path class="st0" d="M43.3,5v3.3c0,0.9-0.7,1.7-1.7,1.7h-40C0.7,10,0,9.3,0,8.3l0,0V5c0-0.9,0.7-1.7,1.7-1.7l0,0h5V1.7
	C6.7,0.7,7.4,0,8.3,0c0,0,0,0,0,0h3.3c0.9,0,1.7,0.7,1.7,1.6c0,0,0,0,0,0v1.7H30V1.7C30,0.7,30.7,0,31.7,0c0,0,0,0,0,0H35
	c0.9,0,1.7,0.7,1.7,1.6c0,0,0,0,0,0v1.7h5C42.6,3.3,43.3,4.1,43.3,5z M1.7,13.3h40V35c0,0.9-0.7,1.7-1.7,1.7c0,0,0,0,0,0H3.3
	c-0.9,0-1.7-0.7-1.7-1.6c0,0,0,0,0,0V13.3z M14.8,26.2H21l-3.9,3.9c-0.6,0.6-0.6,1.5,0,2.1c0.3,0.3,0.7,0.4,1.1,0.4
	c0.4,0,0.8-0.2,1.1-0.4l9-9H22l3.6-3.6c0.6-0.6,0.5-1.6-0.1-2.1c-0.6-0.5-1.5-0.5-2,0L14.8,26.2z"/>
</svg>
