<?xml version="1.0" encoding="utf-8"?>
<!-- Generator: Adobe Illustrator 24.1.2, SVG Export Plug-In . SVG Version: 6.00 Build 0)  -->
<svg version="1.1" id="Layer_1" xmlns="http://www.w3.org/2000/svg" xmlns:xlink="http://www.w3.org/1999/xlink" x="0px" y="0px"
	 viewBox="0 0 43.3 36.7" style="enable-background:new 0 0 43.3 36.7;" xml:space="preserve">
<style type="text/css">
	.st0{fill:#F3F3F3;}
</style>
<path class="st0" d="M0,5c0-0.9,0.7-1.7,1.7-1.7l0,0h40c0.9,0,1.7,0.7,1.7,1.7v3.3c0,0.9-0.7,1.7-1.7,1.7h-40C0.7,10,0,9.3,0,8.3
	l0,0V5z"/>
<path class="st0" d="M36.7,6.7H30v-5C30,0.7,30.7,0,31.7,0c0,0,0,0,0,0H35c0.9,0,1.7,0.7,1.7,1.6c0,0,0,0,0,0V6.7z"/>
<path class="st0" d="M13.3,6.7H6.7v-5C6.7,0.7,7.4,0,8.3,0c0,0,0,0,0,0h3.3c0.9,0,1.7,0.7,1.7,1.6c0,0,0,0,0,0V6.7z"/>
<path class="st0" d="M1.7,13.3V35c0,0.9,0.7,1.7,1.7,1.7c0,0,0,0,0,0H40c0.9,0,1.7-0.7,1.7-1.6c0,0,0,0,0,0V13.3H1.7z M13.5,31.3
	c-0.6,0.6-1.5,0.6-2.1,0c-0.6-0.6-0.6-1.5,0-2.1c0,0,0,0,0,0l4.8-4.8l-5-5c-0.6-0.6-0.6-1.6,0-2.2c0.6-0.6,1.6-0.6,2.2,0l7.1,7.1
	L13.5,31.3z M25.5,31.3c-0.6,0.6-1.5,0.6-2.1,0c-0.6-0.6-0.6-1.5,0-2.1c0,0,0,0,0,0l4.8-4.8l-4.9-5c-0.6-0.6-0.6-1.5,0-2.1
	c0.6-0.6,1.5-0.6,2.1,0l7.1,7.1L25.5,31.3z"/>
</svg>
