<svg width="55" height="37" viewBox="0 0 55 37" fill="none" xmlns="http://www.w3.org/2000/svg">
<path d="M29.6133 3.49147e-05C35.2324 5.61912 38.5759 10.0119 36.9716 11.6178L41.6451 16.2913C42.273 16.9192 43.2897 16.9192 43.916 16.2913L44.7032 15.504L46.6855 17.4894L45.8983 18.2736C45.2703 18.9015 45.2703 19.9181 45.8983 20.5444L47.1372 21.7834C47.9385 22.5847 49.2387 22.5847 50.0416 21.7834L54.3983 17.4267C55.1997 16.6253 55.2013 15.3252 54.3983 14.5223L53.1594 13.2833C52.5347 12.6554 51.5196 12.6539 50.8916 13.2802L50.0448 14.1239L48.0625 12.1416L48.9062 11.2979C49.5341 10.67 49.5341 9.65333 48.9062 9.02702L44.2359 4.35356C39.826 -0.0562726 32.9986 3.49147e-05 29.6133 3.49147e-05ZM34.3118 14.6916L18.6385 30.3932C17.8757 31.1528 17.8757 32.3843 18.6385 33.1471L21.3955 35.9041C22.1551 36.6669 23.3898 36.6669 24.1494 35.9041L39.8259 20.2025L34.3118 14.6916Z" fill="#F3F3F3"/>
<path d="M25.3867 3.49147e-05C19.7676 5.61912 16.4241 10.0119 18.0284 11.6178L13.3549 16.2913C12.727 16.9192 11.7103 16.9192 11.084 16.2913L10.2968 15.504L8.31447 17.4894L9.10174 18.2736C9.72966 18.9015 9.72966 19.9181 9.10174 20.5444L7.86281 21.7834C7.06146 22.5847 5.76132 22.5847 4.95836 21.7834L0.601697 17.4267C-0.199653 16.6253 -0.201259 15.3252 0.601697 14.5223L1.84063 13.2833C2.46533 12.6554 3.48045 12.6539 4.10836 13.2802L4.95523 14.1239L6.93753 12.1416L6.09379 11.2979C5.46588 10.67 5.46588 9.65333 6.09379 9.02702L10.7641 4.35356C15.174 -0.0562726 22.0014 3.49147e-05 25.3867 3.49147e-05ZM20.6882 14.6916L36.3615 30.3932C37.1243 31.1528 37.1243 32.3843 36.3615 33.1471L33.6045 35.9041C32.8449 36.6669 31.6102 36.6669 30.8506 35.9041L15.1741 20.2025L20.6882 14.6916Z" fill="#F3F3F3"/>
</svg>
