<?xml version="1.0" encoding="utf-8"?>
<!-- Generator: Adobe Illustrator 24.1.2, SVG Export Plug-In . SVG Version: 6.00 Build 0)  -->
<svg version="1.1" id="Layer_1" xmlns="http://www.w3.org/2000/svg" xmlns:xlink="http://www.w3.org/1999/xlink" x="0px" y="0px"
	 viewBox="0 0 50 50" style="enable-background:new 0 0 50 50;" xml:space="preserve">
<style type="text/css">
	.st0{fill:#F3F3F3;}
</style>
<path class="st0" d="M38.2,18.5C34.4,17.6,36.5,5,25,5c-11.8,0-9.1,12-13.4,13.5C7.6,19.9,5,23.7,5,28.3c9.9,0,4.4,7.8,7.8,8.9
	c3.5,1.2,4.9,1.4,6.2,4.2c0.9,2,2.3,3.7,6.1,3.6c6.1-0.1,5.2-5.1,8.3-6c7.9-2.4,0.6-9,11.5-9C45,25.4,45,20.1,38.2,18.5z M20,18.3
	c-0.9,0-1.7-1.1-1.7-2.5s0.7-2.5,1.7-2.5s1.7,1.1,1.7,2.5S20.9,18.3,20,18.3z M26.7,18.3c-0.9,0-1.7-1.1-1.7-2.5s0.7-2.5,1.7-2.5
	s1.7,1.1,1.7,2.5S27.6,18.3,26.7,18.3z"/>
</svg>
