<?xml version="1.0" encoding="utf-8"?>
<!-- Generator: Adobe Illustrator 24.1.2, SVG Export Plug-In . SVG Version: 6.00 Build 0)  -->
<svg version="1.1" id="Layer_1" xmlns="http://www.w3.org/2000/svg" xmlns:xlink="http://www.w3.org/1999/xlink" x="0px" y="0px"
	 viewBox="0 0 50 50" style="enable-background:new 0 0 50 50;" xml:space="preserve">
<style type="text/css">
	.st0{fill:#7D7D7D;}
</style>
<path class="st0" d="M25,5c-1.5,0-2.8,0.8-3.7,1.9C21,7,20.8,7.2,20.7,7.5l-4,6.7c-0.5,0.8-0.2,1.8,0.6,2.3c0.8,0.5,1.8,0.2,2.3-0.6
	l3.5-5.9h-0.9c0.6,0,1.1-0.3,1.4-0.8c0.3-0.5,0.8-0.8,1.4-0.8s1.1,0.3,1.4,0.8c0.3,0.5,0.8,0.8,1.4,0.8h-0.9l5.7,9.7l-2.1,1.2
	l6.3,2.6l0.7-6.7l-2,1.2L29.3,7.5C29.2,7.2,29,7,28.7,6.9C27.8,5.8,26.5,5,25,5z M25,18.3L20,30h5v8.3l5-11.7h-5V18.3z M14.7,20.9
	l-6.3,2.6l2.1,1.2L4.1,35.7c-0.2,0.3-0.2,0.6-0.2,0.8c-0.2,0.6-0.5,1.2-0.5,1.8c0,2.7,2.3,5,5,5H20c0.9,0,1.7-0.7,1.7-1.6
	c0-0.9-0.7-1.7-1.6-1.7c0,0,0,0,0,0H8.3c-0.9,0-1.7-0.7-1.7-1.7c0-0.3,0.1-0.6,0.3-0.9c0.3-0.5,0.4-1.1,0.1-1.6l0.4,0.7l5.9-10.1
	l2.1,1.3L14.7,20.9z M40.3,27.9c-0.9,0-1.6,0.8-1.6,1.7c0,0.3,0.1,0.5,0.2,0.8l3.7,6.3l0.2-0.7c-0.2,0.5-0.1,1,0.2,1.4
	c0.2,0.3,0.3,0.6,0.3,0.9c0,0.9-0.7,1.7-1.7,1.7h-10v-2.5l-5.6,4.2l5.6,4.2v-2.5h10c2.7,0,5-2.3,5-5c0-0.7-0.3-1.2-0.5-1.8
	c0-0.3-0.1-0.6-0.2-0.8l-4.1-6.9C41.5,28.2,40.9,27.9,40.3,27.9z"/>
</svg>
