<?xml version="1.0" encoding="utf-8"?>
<!-- Generator: Adobe Illustrator 24.1.2, SVG Export Plug-In . SVG Version: 6.00 Build 0)  -->
<svg version="1.1" id="Layer_1" xmlns="http://www.w3.org/2000/svg" xmlns:xlink="http://www.w3.org/1999/xlink" x="0px" y="0px"
	 viewBox="0 0 50 50" style="enable-background:new 0 0 50 50;" xml:space="preserve">
<style type="text/css">
	.st0{fill:#7D7D7D;}
</style>
<path class="st0" d="M25,1.7c-0.5,0-0.9,0.4-0.9,0.9c0,2.5-2.1,4.8-3.8,7.4c-0.8-1.3-1.4-2.5-1.4-3.9c0-0.5-0.4-0.9-0.9-0.9
	c-0.2,0-0.5,0.1-0.6,0.3c0,0-0.1,0.1-0.1,0.1c-1.4,1.6-4.1,5.3-4.4,9.1c0,0,0,0,0,0c-3.8,3.4-6.3,8.3-6.3,13.8
	c0,10.1,8.2,18.3,18.3,18.3s18.3-8.2,18.3-18.3c0-5.4-2.4-10.2-6.1-13.6c0,0,0,0,0,0c-0.2-0.2-0.3-0.3-0.5-0.5c0,0,0,0,0,0
	c-0.9-3-2.9-5.7-4-7c0,0,0-0.1-0.1-0.1c-0.2-0.2-0.4-0.3-0.6-0.3c-0.5,0-0.9,0.4-0.9,0.9c0,1.1-0.4,2.1-0.9,3c0,0-0.1,0-0.1,0
	c0,0,0,0,0,0c-0.2-0.1-0.5-0.1-0.7-0.2c0.2,0.1,0.5,0.1,0.7,0.2c-0.5-3.6-3-7.2-4.4-8.7c0,0,0-0.1-0.1-0.1C25.5,1.8,25.2,1.7,25,1.7
	z M25,10c0.5,0,1.1,0,1.6,0.1C26.1,10,25.5,10,25,10z M25,10c-0.6,0-1.2,0-1.8,0.1C23.8,10,24.4,10,25,10z M27.2,10.2
	c0.3,0,0.6,0.1,0.9,0.1C27.8,10.2,27.5,10.2,27.2,10.2z M22.5,10.2c-0.3,0-0.7,0.1-1,0.2C21.8,10.3,22.1,10.2,22.5,10.2z M20.7,10.5
	c-0.3,0.1-0.6,0.1-0.9,0.2C20.1,10.7,20.4,10.6,20.7,10.5z M18.9,11.1c-0.2,0.1-0.4,0.1-0.6,0.2C18.5,11.2,18.7,11.1,18.9,11.1z
	 M17.2,11.8c-0.1,0.1-0.2,0.1-0.4,0.2C16.9,11.9,17,11.8,17.2,11.8z M15.6,12.6c-0.1,0-0.1,0.1-0.2,0.1
	C15.5,12.7,15.6,12.6,15.6,12.6z M25,13.3c8.3,0,15,6.7,15,15s-6.7,15-15,15c-0.6,0-1.3-0.1-1.9-0.1C15.7,42.3,10,36,10,28.3
	C10,20,16.7,13.3,25,13.3z M23.1,43.2c-0.8-0.9-1.6-2.2-1.6-3.5c0-2.8,2.6-3.8,2.6-3.8c-1.3,3.5,2,4.5,3.7,7.2
	c1.9-0.4,3.7-1.1,5.3-2.1c0.3-0.9,0.6-2,0.6-3.3c0-2.1-1-5.6-1.8-7.2c0,0,0,0,0,0l0,0c-0.1-0.3-0.5-0.5-0.8-0.5
	c-0.4,0-0.8,0.3-0.9,0.7v0c0,0-0.4,1.8-1.8,2.7c0-4.1-3-8.3-4.5-10c0,0,0-0.1-0.1-0.1c-0.2-0.2-0.4-0.3-0.6-0.3
	c-0.5,0-0.9,0.4-0.9,0.9c0,4.4-6.1,7.8-6.1,13.8c0,1.4,0.4,2.6,1.1,3.6C19.1,42.3,21.1,42.9,23.1,43.2z M14.2,13.5
	c-0.1,0-0.1,0.1-0.2,0.1C14.1,13.6,14.2,13.6,14.2,13.5z"/>
</svg>
