<svg width="43" height="48" viewBox="0 0 43 48" fill="none" xmlns="http://www.w3.org/2000/svg">
<path d="M34.6895 5.4054C31.8616 11.3014 25.159 19.3043 15.0931 26.9932L18.74 32.126C26.6474 26.1773 33.4415 19.2848 36.457 13.4709C37.8949 10.7003 37.1641 7.30514 34.6895 5.4054ZM9.27931 27.0809C8.99751 27.0821 8.72134 27.16 8.48054 27.3064C8.23973 27.4528 8.0434 27.662 7.91266 27.9117C7.78192 28.1613 7.72173 28.4419 7.73857 28.7232C7.7554 29.0045 7.84862 29.2759 8.0082 29.5082L8.84955 30.7672L1.35906 36.0907C-0.0928726 37.1212 -0.435614 39.1331 0.596386 40.585L1.05944 41.2357C2.08989 42.6876 4.10483 43.0304 5.55676 41.9984L12.8687 36.7989L14.2064 38.8055C14.3177 38.9783 14.4623 39.1272 14.6317 39.2436C14.8012 39.3599 14.9921 39.4414 15.1933 39.4833C15.3946 39.5252 15.6021 39.5267 15.8039 39.4876C16.0057 39.4485 16.1977 39.3696 16.3688 39.2556C16.5398 39.1416 16.6864 38.9947 16.8001 38.8234C16.9138 38.6522 16.9924 38.46 17.0311 38.2581C17.0698 38.0563 17.068 37.8487 17.0257 37.6476C16.9835 37.4464 16.9016 37.2556 16.7849 37.0864L10.5867 27.7891C10.4457 27.5709 10.252 27.3917 10.0235 27.268C9.79505 27.1442 9.53913 27.0799 9.27931 27.0809Z" fill="#F3F3F3"/>
<path d="M8.3105 5.4054C11.1384 11.3014 17.841 19.3043 27.9069 26.9932L24.26 32.126C16.3526 26.1773 9.55847 19.2848 6.54304 13.4709C5.10506 10.7003 5.83587 7.30514 8.3105 5.4054ZM33.7207 27.0809C34.0025 27.0821 34.2787 27.16 34.5195 27.3064C34.7603 27.4528 34.9566 27.662 35.0873 27.9117C35.2181 28.1613 35.2783 28.4419 35.2614 28.7232C35.2446 29.0045 35.1514 29.2759 34.9918 29.5082L34.1504 30.7672L41.6409 36.0907C43.0929 37.1212 43.4356 39.1331 42.4036 40.585L41.9406 41.2357C40.9101 42.6876 38.8952 43.0304 37.4432 41.9984L30.1313 36.7989L28.7936 38.8055C28.6823 38.9783 28.5377 39.1272 28.3683 39.2436C28.1988 39.3599 28.0079 39.4414 27.8067 39.4833C27.6054 39.5252 27.3979 39.5267 27.1961 39.4876C26.9943 39.4485 26.8023 39.3696 26.6312 39.2556C26.4602 39.1416 26.3136 38.9947 26.1999 38.8234C26.0862 38.6522 26.0076 38.46 25.9689 38.2581C25.9302 38.0563 25.932 37.8487 25.9743 37.6476C26.0165 37.4464 26.0984 37.2556 26.2151 37.0864L32.4133 27.7891C32.5543 27.5709 32.748 27.3917 32.9765 27.268C33.205 27.1442 33.4609 27.0799 33.7207 27.0809Z" fill="#F3F3F3"/>
</svg>
