<?xml version="1.0" encoding="utf-8"?>
<!-- Generator: Adobe Illustrator 24.1.2, SVG Export Plug-In . SVG Version: 6.00 Build 0)  -->
<svg version="1.1" id="Layer_1" xmlns="http://www.w3.org/2000/svg" xmlns:xlink="http://www.w3.org/1999/xlink" x="0px" y="0px"
	 viewBox="0 0 50 50" style="enable-background:new 0 0 50 50;" xml:space="preserve">
<style type="text/css">
	.st0{fill:#7D7D7D;}
</style>
<path class="st0" d="M10,11.7V40c0,1.3,0.5,2.4,1.3,3.3c0.9,1,2.2,1.7,3.7,1.7h20c1.5,0,2.8-0.7,3.7-1.7c0.8-0.9,1.3-2.1,1.3-3.3
	V11.7c0-2.7-2.3-5-5-5h-5V5c0-0.9-0.8-1.7-1.7-1.7h-6.7C20.8,3.3,20,4.1,20,5v1.7h-5C12.3,6.7,10,8.9,10,11.7z M18.4,32.6l5-12.9
	c0.1-0.2,0.3-0.4,0.5-0.4c0.1,0,0.3,0.1,0.4,0.2l2.2,2.1l4.1-6.3c0.1-0.2,0.3-0.3,0.5-0.3c0.3,0,0.6,0.2,0.6,0.6c0,0.1,0,0.1,0,0.2
	l-3.9,12.9c-0.1,0.2-0.3,0.4-0.5,0.4c-0.1,0-0.3-0.1-0.3-0.1l0,0l-2.5-2l-5.1,6.3c-0.1,0.1-0.2,0.2-0.4,0.2c-0.3,0-0.6-0.3-0.6-0.6
	C18.3,32.7,18.4,32.6,18.4,32.6z"/>
</svg>
